# xmcd
#
# Track frame offsets:
#	150
#	9941
#	26573
#	44641
#	66189
#	86161
#	105350
#	126317
#	140846
#	160356
#	177935
#	197237
#	216299
#	242213
#	265221
#
# Disc length: 3680 seconds
#
# Revision: 1
# Processed by: cddbd v1.5.2PL0 Copyright (c) Steve Scherf et al.
# Submitted via: audiograbber 1.83.01
#
DISCID=df0e5e0f
DTITLE=Matthias Reim (LC 00193) - Unendlich Live Cd 1
DYEAR=2013
DGENRE=Schlager
TTITLE0=Unendlich (Intro) (Live)
TTITLE1=Einsamer Stern (Live)
TTITLE2=Verdammt Fuer Alle Zeit (Live)
TTITLE3=Ich Hab Mich So Auf Dich Gefreut (Live)
TTITLE4=Hallo, Ich Moechte Gern Wissen (Live)
TTITLE5=Du Bist Mein Glueck (Live)
TTITLE6=Du Bleibst (Live)
TTITLE7=Unterm Mond (Live)
TTITLE8=Sowieso Fuer Dich Das Letzte (Live)
TTITLE9=Tief In Mir (Live)
TTITLE10=Dann Bist Es Du (Live)
TTITLE11=Was Ist Nur Los (Live)
TTITLE12=Unverwundbar (Live)
TTITLE13=Am Fenster (Live)
TTITLE14=Hallelujah (Live)
EXTD=
EXTT0=
EXTT1=
EXTT2=
EXTT3=
EXTT4=
EXTT5=
EXTT6=
EXTT7=
EXTT8=
EXTT9=
EXTT10=
EXTT11=
EXTT12=
EXTT13=
EXTT14=
PLAYORDER=
